<svg width="16" height="16" viewBox="0 0 16 16" fill="none" xmlns="http://www.w3.org/2000/svg">
<path d="M7.79358 3.8978C5.58249 3.8978 3.79901 5.72933 3.79901 8C3.79901 10.2707 5.58249 12.1022 7.79358 12.1022C10.0047 12.1022 11.7882 10.2707 11.7882 8C11.7882 5.72933 10.0047 3.8978 7.79358 3.8978ZM7.79358 10.667C6.36472 10.667 5.19659 9.47094 5.19659 8C5.19659 6.52906 6.36124 5.33304 7.79358 5.33304C9.22593 5.33304 10.3906 6.52906 10.3906 8C10.3906 9.47094 9.22245 10.667 7.79358 10.667V10.667ZM12.8833 3.73C12.8833 4.26197 12.4661 4.68682 11.9516 4.68682C11.4335 4.68682 11.0198 4.2584 11.0198 3.73C11.0198 3.20161 11.437 2.77318 11.9516 2.77318C12.4661 2.77318 12.8833 3.20161 12.8833 3.73ZM15.5289 4.7011C15.4698 3.41939 15.1848 2.28406 14.2704 1.34866C13.3596 0.413254 12.254 0.120495 11.0059 0.0562312C9.7196 -0.0187437 5.86409 -0.0187437 4.57776 0.0562312C3.33315 0.116925 2.22761 0.409684 1.31327 1.34509C0.398936 2.28049 0.117334 3.41582 0.0547559 4.69753C-0.018252 6.01852 -0.018252 9.97791 0.0547559 11.2989C0.113857 12.5806 0.398936 13.7159 1.31327 14.6513C2.22761 15.5867 3.32968 15.8795 4.57776 15.9438C5.86409 16.0187 9.7196 16.0187 11.0059 15.9438C12.254 15.8831 13.3596 15.5903 14.2704 14.6513C15.1813 13.7159 15.4664 12.5806 15.5289 11.2989C15.6019 9.97791 15.6019 6.02209 15.5289 4.7011V4.7011ZM13.8671 12.7163C13.596 13.416 13.071 13.9551 12.3861 14.2372C11.3605 14.6549 8.92694 14.5585 7.79358 14.5585C6.66023 14.5585 4.22315 14.6513 3.20105 14.2372C2.51964 13.9587 1.99468 13.4196 1.72003 12.7163C1.31327 11.6631 1.40714 9.1639 1.40714 8C1.40714 6.8361 1.31675 4.33337 1.72003 3.28372C1.9912 2.58396 2.51616 2.04485 3.20105 1.7628C4.22663 1.34509 6.66023 1.44148 7.79358 1.44148C8.92694 1.44148 11.364 1.34866 12.3861 1.7628C13.0675 2.04128 13.5925 2.58039 13.8671 3.28372C14.2739 4.33694 14.18 6.8361 14.18 8C14.18 9.1639 14.2739 11.6666 13.8671 12.7163Z" fill="#2A2F2F"/>
</svg>
