<svg width="15" height="16" viewBox="0 0 15 16" fill="none" xmlns="http://www.w3.org/2000/svg">
<path d="M0 1.85859C0 1.31985 0.168924 0.87541 0.506757 0.525253C0.84459 0.175079 1.28379 0 1.82432 0C2.35522 0 2.78474 0.17238 3.11293 0.517172C3.45077 0.872727 3.61969 1.33602 3.61969 1.90707C3.61969 2.42424 3.4556 2.85521 3.12741 3.2C2.78958 3.55556 2.34556 3.73333 1.79537 3.73333H1.78089C1.25 3.73333 0.820468 3.55556 0.492278 3.2C0.164088 2.84444 0 2.3973 0 1.85859ZM0.188224 16V5.20404H3.40251V16H0.188224ZM5.1834 16H8.39768V9.97172C8.39768 9.5946 8.4363 9.30369 8.51351 9.09899C8.64864 8.73265 8.85376 8.42289 9.12886 8.1697C9.40396 7.91649 9.74903 7.7899 10.1641 7.7899C11.2452 7.7899 11.7857 8.60336 11.7857 10.2303V16H15V9.8101C15 8.21548 14.6622 7.00606 13.9865 6.18182C13.3108 5.35758 12.418 4.94545 11.3079 4.94545C10.0627 4.94545 9.09266 5.54343 8.39768 6.73939V6.77172H8.3832L8.39768 6.73939V5.20404H5.1834C5.2027 5.54882 5.21236 6.62086 5.21236 8.4202C5.21236 10.2195 5.2027 12.7461 5.1834 16Z" fill="#2A2F2F" fill-opacity="0.92"/>
</svg>
