<svg width="18" height="16" viewBox="0 0 18 16" fill="none" xmlns="http://www.w3.org/2000/svg">
<path d="M15.9703 3.98749C15.9816 4.16248 15.9816 4.33751 15.9816 4.5125C15.9816 9.84997 12.3109 16 5.60203 16C3.53514 16 1.61511 15.3375 0 14.1875C0.293665 14.225 0.575997 14.2375 0.880961 14.2375C2.58639 14.2375 4.15633 13.6 5.41002 12.5125C3.80621 12.475 2.46217 11.3125 1.99909 9.7125C2.225 9.74997 2.45087 9.77498 2.68808 9.77498C3.0156 9.77498 3.34317 9.72496 3.6481 9.63751C1.97653 9.26247 0.722812 7.63749 0.722812 5.67499V5.62501C1.20845 5.92501 1.77322 6.11251 2.37178 6.13748C1.38916 5.41247 0.74541 4.17498 0.74541 2.77497C0.74541 2.02499 0.926087 1.33749 1.24235 0.737481C3.03817 3.18748 5.73754 4.78745 8.76441 4.96248C8.70795 4.66248 8.67406 4.35001 8.67406 4.03751C8.67406 1.81248 10.3005 0 12.3222 0C13.3725 0 14.3212 0.487499 14.9876 1.275C15.8121 1.10001 16.6027 0.762491 17.303 0.300002C17.0319 1.23752 16.4559 2.02502 15.6992 2.52499C16.4333 2.43753 17.1449 2.21248 17.7999 1.90001C17.3031 2.69998 16.6818 3.41245 15.9703 3.98749V3.98749Z" fill="#2A2F2F"/>
</svg>
